<svg width="16" height="17" viewBox="0 0 16 17" fill="none" xmlns="http://www.w3.org/2000/svg">
<g clip-path="url(#clip0_2492_21838)">
<path d="M8.00033 16.2614C12.0437 16.2614 15.3337 12.9717 15.3337 8.92806C15.3337 8.23012 15.2362 7.54232 15.0433 6.88361C14.9483 6.55971 14.6101 6.37366 14.2853 6.4687C13.961 6.56344 13.7756 6.90286 13.8703 7.22677C14.0301 7.77402 14.1114 8.34664 14.1114 8.92806C14.1114 12.2977 11.3699 15.0392 8.00033 15.0392C4.63071 15.0392 1.88921 12.2977 1.88921 8.92806C1.88921 5.55844 4.63071 2.81695 8.00033 2.81695C9.22493 2.81695 10.4031 3.17502 11.4075 3.85223C11.6871 4.04096 12.0673 3.96681 12.2557 3.68722C12.4443 3.40732 12.3708 3.02747 12.0909 2.83888C10.8839 2.02501 9.46947 1.59473 8.00033 1.59473C3.95694 1.59473 0.666992 4.88437 0.666992 8.92806C0.666992 12.9717 3.95694 16.2614 8.00033 16.2614Z" fill="#FF3F3A"/>
<path d="M14.8622 2.45658L8.0002 9.31824L5.80489 7.12325C5.54447 6.863 5.1226 6.863 4.86218 7.12325C4.60193 7.38367 4.60193 7.80554 4.86218 8.06596L7.52885 10.7326C7.65922 10.863 7.82947 10.9279 8.0002 10.9279C8.17094 10.9279 8.34119 10.863 8.47156 10.7326L15.8049 3.39929C16.0651 3.13888 16.0651 2.717 15.8049 2.45658C15.5445 2.19633 15.1226 2.19633 14.8622 2.45658Z" fill="#FF3F3A"/>
</g>
<defs>
<clipPath id="clip0_2492_21838">
<rect width="16" height="16" fill="white" transform="translate(0 0.927734)"/>
</clipPath>
</defs>
</svg>
